Coordinates
version=1
nRows=17
nColumns=40
inDegrees=yes
endheader
time	pelvis_tilt	pelvis_list	pelvis_rotation	pelvis_tx	pelvis_ty	pelvis_tz	hip_flexion_r	hip_adduction_r	hip_rotation_r	knee_angle_r	knee_angle_r_beta	ankle_angle_r	subtalar_angle_r	mtp_angle_r	hip_flexion_l	hip_adduction_l	hip_rotation_l	knee_angle_l	knee_angle_l_beta	ankle_angle_l	subtalar_angle_l	mtp_angle_l	lumbar_extension	lumbar_bending	lumbar_rotation	arm_flex_r	arm_add_r	arm_rot_r	elbow_flex_r	pro_sup_r	wrist_flex_r	wrist_dev_r	arm_flex_l	arm_add_l	arm_rot_l	elbow_flex_l	pro_sup_l	wrist_flex_l	wrist_dev_l
      4.05000000	    -16.06502583	      3.46301812	      8.17867064	      0.92168089	      0.97164537	     -0.36999808	     22.72771030	     -7.10661935	     -0.71257529	    107.62438733	      1.87839991	     -7.01230941	      0.00000000	      0.00000000	     38.67731580	     12.22331993	     -2.25556864	     45.64843975	      0.79671557	     10.76486509	      0.00000000	      0.00000000	      0.25033638	     -6.51779276	     -4.08776529	    -29.97283352	    -23.51641033	     -1.01139915	     89.64446760	     62.10319219	      0.00000000	      0.00000000	    -29.03532781	    -15.97258700	     -8.25594866	    110.78311596	     55.93574925	      0.00000000	      0.00000000
      4.06000000	    -15.78145688	      3.41822237	      7.80742269	      0.91869416	      0.96980660	     -0.36988440	     26.31351056	     -7.49702303	      0.24582433	    109.74145190	      1.91534966	     -6.37236813	      0.00000000	      0.00000000	     36.21690014	     12.09575959	     -1.48746282	     46.36543777	      0.80922955	     12.20532204	      0.00000000	      0.00000000	     -0.54229410	     -6.21381280	     -5.28857684	    -30.63175509	    -23.92897194	     -0.87993815	     88.53258811	     62.06616678	      0.00000000	      0.00000000	    -26.74859200	    -15.95059657	     -8.18819046	    109.84690936	     55.84422487	      0.00000000	      0.00000000
      4.07000000	    -15.57787338	      3.25426569	      7.65414151	      0.91699828	      0.96964376	     -0.36991342	     29.76656986	     -7.52975356	      1.12141188	    110.85632146	      1.93480781	     -5.74095245	      0.00000000	      0.00000000	     33.50860925	     11.76429758	     -1.13600515	     46.61440847	      0.81357491	     13.16255953	      0.00000000	      0.00000000	     -0.95349992	     -5.87874454	     -6.63334172	    -31.80149768	    -24.39351316	     -0.82974928	     87.91274139	     62.00466713	      0.00000000	      0.00000000	    -25.29421802	    -16.06698217	     -8.21377456	    109.59146630	     55.79341982	      0.00000000	      0.00000000
      4.08000000	    -15.91760876	      3.31332534	      6.50630881	      0.91521197	      0.97054687	     -0.36920627	     34.06798936	     -7.29008113	      2.85855645	    111.36974541	      1.94376874	     -3.96298837	      0.00000000	      0.00000000	     30.67461838	     11.67449334	     -0.11733235	     45.50199059	      0.79415955	     15.86329492	      0.00000000	      0.00000000	     -0.44526658	     -5.68557826	     -6.63803888	    -33.19036074	    -24.92072935	     -0.82456787	     88.46052320	     61.90404317	      0.00000000	      0.00000000	    -23.88576211	    -15.84490063	     -8.37983539	    110.04373907	     55.75409561	      0.00000000	      0.00000000
      4.09000000	    -16.24568338	      3.12549938	      5.85081220	      0.91458934	      0.97259055	     -0.36928970	     38.01509967	     -7.06318901	      3.73563416	    111.03597122	      1.93794329	     -3.11825079	      0.00000000	      0.00000000	     27.71596795	     11.13043863	     -0.10450535	     44.12213162	      0.77007647	     16.28909661	      0.00000000	      0.00000000	      0.16946823	     -5.23337736	     -7.31046102	    -34.90226064	    -25.50937247	     -1.33745990	     89.76070457	     61.74836830	      0.00000000	      0.00000000	    -23.41684857	    -15.67652459	     -8.60718411	    111.81093157	     55.75912003	      0.00000000	      0.00000000
      4.10000000	    -16.64892470	      2.76562324	      5.16290147	      0.91423992	      0.97569707	     -0.36952969	     41.77960524	     -6.58576364	      4.33895877	    109.82522921	      1.91681185	     -2.53572925	      0.00000000	      0.00000000	     24.61057612	     10.45588493	      0.15073285	     42.20818954	      0.73667188	     15.90553004	      0.00000000	      0.00000000	      0.97698159	     -4.57025875	     -7.91853050	    -36.68454611	    -26.19505281	     -1.90772584	     91.45325497	     61.59024441	      0.00000000	      0.00000000	    -23.32985824	    -15.28401999	     -8.95507784	    114.25623046	     55.76713518	      0.00000000	      0.00000000
      4.11000000	    -17.15417542	      2.33416597	      4.40474831	      0.91462919	      0.97977020	     -0.36966915	     45.33321364	     -5.91424102	      4.66905260	    107.89371461	      1.88310056	     -2.06321807	      0.00000000	      0.00000000	     21.45603354	      9.71254076	      0.52863519	     39.80990256	      0.69481387	     14.64993939	      0.00000000	      0.00000000	      1.95969393	     -3.79025433	     -8.50289196	    -38.53629186	    -26.79033655	     -2.57517374	     93.59193495	     61.40736926	      0.00000000	      0.00000000	    -23.66375601	    -14.79099673	     -9.38249520	    117.10242691	     55.76109411	      0.00000000	      0.00000000
      4.12000000	    -17.67249126	      1.91332055	      3.65337765	      0.91525312	      0.98482402	     -0.36983955	     48.54765300	     -5.26723236	      4.74892889	    105.32696905	      1.83830240	     -1.58891617	      0.00000000	      0.00000000	     18.28222943	      8.94616413	      0.84409550	     37.05723842	      0.64677082	     12.14552636	      0.00000000	      0.00000000	      2.92198911	     -2.95011786	     -9.12541193	    -40.36369557	    -27.39482819	     -3.41342634	     95.95421386	     61.18125581	      0.00000000	      0.00000000	    -24.12842129	    -14.33920228	     -9.87870187	    120.03239297	     55.73344862	      0.00000000	      0.00000000
      4.13000000	    -17.97969332	      1.59846602	      2.92500610	      0.91683760	      0.99109661	     -0.37010071	     50.95478541	     -4.71383737	      4.65370615	    101.96959448	      1.77970516	     -0.98881924	      0.00000000	      0.00000000	     14.90775215	      8.27280421	      0.92118362	     34.07631528	      0.59474390	      8.13316534	      0.00000000	      0.00000000	      3.79969664	     -2.17698362	     -9.66049471	    -42.08747084	    -27.82878581	     -4.32372942	     98.18451504	     60.82865332	      0.00000000	      0.00000000	    -24.57091366	    -13.92823090	    -10.28051445	    122.60978609	     55.65077846	      0.00000000	      0.00000000
      4.14000000	    -18.49417854	      0.92264816	      2.29396663	      0.91918852	      0.99746878	     -0.37014838	     53.03296414	     -4.00952085	      3.86481206	     97.98997394	      1.71024768	     -0.24029764	      0.00000000	      0.00000000	     11.91175760	      7.14788886	      0.75427299	     31.21824068	      0.54486109	      3.81523932	      0.00000000	      0.00000000	      5.01519342	     -1.11764694	    -10.11848964	    -43.95247343	    -28.17921816	     -5.01207205	    100.02625158	     60.63087596	      0.00000000	      0.00000000	    -25.20700096	    -13.61070326	    -10.23197280	    125.59582462	     55.67761567	      0.00000000	      0.00000000
      4.15000000	    -18.83420946	      0.87797854	      1.92774414	      0.92098742	      1.00398778	     -0.37019278	     54.60961809	     -3.92590641	      3.43910890	     93.43338548	      1.63072021	      0.33622918	      0.00000000	      0.00000000	      9.56037787	      6.71799415	      0.40078529	     29.97297707	      0.52312714	      1.03354035	      0.00000000	      0.00000000	      5.96156075	     -0.93865338	    -10.61422211	    -45.33981095	    -28.38412154	     -5.46153726	    101.17376558	     60.54430335	      0.00000000	      0.00000000	    -25.60900873	    -13.70879598	    -10.24434787	    127.45106159	     55.71226022	      0.00000000	      0.00000000
      4.16000000	    -18.12574164	     -0.02850927	      0.74740847	      0.92583615	      1.01277183	     -0.37004737	     54.44602803	     -2.83381737	      2.22637361	     88.42733319	      1.54334811	      1.24225867	      0.00000000	      0.00000000	      4.47654318	      5.29168452	     -0.72554307	     24.45686028	      0.42685274	     -8.61759140	      0.00000000	      0.00000000	      5.91012721	      0.79703695	    -10.08467079	    -47.44387715	    -28.20600063	     -7.00341194	    103.39871816	     59.93674994	      0.00000000	      0.00000000	    -25.90398796	    -13.47350299	     -9.55806997	    129.40977416	     55.69806106	      0.00000000	      0.00000000
      4.17000000	    -18.61840386	     -0.74041854	      0.22967394	      0.92874079	      1.01856780	     -0.36990788	     55.41838802	     -2.17705314	      0.89187057	     83.13006881	      1.45089341	      1.90370580	      0.00000000	      0.00000000	      2.21504328	      4.16681335	     -1.25962826	     22.34376301	      0.38997223	    -13.60077388	      0.00000000	      0.00000000	      7.03601423	      1.89932308	    -10.36289161	    -49.16829942	    -28.24194125	     -7.88134956	    105.12485296	     59.72539981	      0.00000000	      0.00000000	    -26.78456037	    -13.36844289	     -9.05069949	    132.25522812	     55.80053513	      0.00000000	      0.00000000
      4.18000000	    -18.83324410	     -1.30040792	     -0.40605555	      0.93183504	      1.02471596	     -0.36978019	     55.71068098	     -1.61975026	     -0.51306377	     77.35595645	      1.35011614	      2.44768906	      0.00000000	      0.00000000	     -0.22584633	      3.30223780	     -1.65217408	     20.03594992	      0.34969329	    -19.50600959	      0.00000000	      0.00000000	      7.85098254	      2.90744708	    -10.28934983	    -50.71558870	    -28.19835796	     -8.72073934	    106.62734708	     59.45020444	      0.00000000	      0.00000000	    -27.45218130	    -13.42110368	     -8.69022449	    133.94749127	     55.87698298	      0.00000000	      0.00000000
      4.19000000	    -18.97541054	     -1.49438025	     -0.88943826	      0.93452478	      1.03032128	     -0.36952893	     55.64951002	     -1.18687376	     -1.61494736	     71.14120183	      1.24164821	      2.87814742	      0.00000000	      0.00000000	     -2.34620673	      2.86089147	     -1.76685313	     18.38955908	      0.32095835	    -24.58608909	      0.00000000	      0.00000000	      8.43897977	      3.54530778	    -10.25005586	    -51.89422499	    -27.76270912	     -9.30775191	    107.97093549	     59.17087055	      0.00000000	      0.00000000	    -27.89655769	    -13.61996371	     -8.32766050	    135.47112673	     55.95650269	      0.00000000	      0.00000000
      4.20000000	    -19.12619585	     -0.43194521	     -1.26971158	      0.93615649	      1.03423220	     -0.36973127	     55.82472671	     -1.96588912	     -2.36454625	     65.43509983	      1.14205794	      3.09900889	      0.00000000	      0.00000000	     -3.62360157	      3.82987879	     -1.89674047	     18.54358846	      0.32364667	    -26.16373068	      0.00000000	      0.00000000	      8.88048405	      2.67764560	    -10.17269116	    -52.86652148	    -27.52654715	     -9.48484317	    108.87975639	     59.10685972	      0.00000000	      0.00000000	    -28.77131066	    -14.11409894	     -8.38649911	    136.52722680	     55.98988832	      0.00000000	      0.00000000
      4.21000000	    -18.75883737	     -1.58345325	     -1.58317285	      0.93872109	      1.03994649	     -0.36939938	     54.07133219	     -0.63713474	     -4.24593404	     57.77737572	      1.00840544	      2.53600866	      0.00000000	      0.00000000	     -5.84266667	      2.42961900	     -1.34027073	     17.13947466	      0.29914026	    -32.40347004	      0.00000000	      0.00000000	      8.84064182	      4.30070540	    -10.01526315	    -53.45428951	    -26.79245957	    -10.33240293	    110.14164525	     58.45561692	      0.00000000	      0.00000000	    -28.51266934	    -14.28913665	     -7.12933106	    137.15760956	     56.06403671	      0.00000000	      0.00000000
